<svg width="318" height="370" viewBox="0 0 318 370" fill="none" xmlns="http://www.w3.org/2000/svg">
<path d="M241.175 233.246C245.845 227.565 242.544 216.228 231.396 199.554C221.272 184.4 205.823 166.73 187.905 149.787C169.986 132.844 151.703 118.646 136.424 109.768C119.593 100.006 108.705 97.9269 104.046 103.611C101.024 107.288 101.344 113.321 104.969 121.663C107.235 126.674 109.897 131.467 112.926 135.99L112.892 136.072L113.034 136.14C113.291 136.531 113.53 136.922 113.804 137.314C123.935 152.464 139.384 170.134 157.286 187.039C175.188 203.944 193.484 218.191 208.762 227.069C225.635 236.848 236.509 238.934 241.175 233.246ZM160.946 182.68C146.707 169.206 134.064 155.285 124.515 142.648C138.319 151.28 154.404 164.043 170.346 179.126C183.217 191.282 195.167 204.518 206.081 218.709C192.311 209.939 176.467 197.37 160.946 182.68ZM217.765 225.347C207.139 209.497 190.783 190.574 173.96 174.679C153.575 155.406 132.831 139.766 116.73 131.504C111.563 123.357 105.216 111.141 108.166 107.537C111.442 103.548 125.823 110.34 133.826 114.978C148.752 123.642 166.677 137.593 184.294 154.241C201.912 170.889 217.057 188.218 226.958 203.019C230.189 207.8 233.029 212.87 235.448 218.175C237.579 223.078 238.624 227.475 237.091 229.422C234.542 232.416 225.45 229.113 217.752 225.317L217.765 225.347Z" fill="#003F88" fill-opacity="0.1"/>
<path d="M254.937 305.645L282.435 272.142C292.603 259.753 290.296 237.288 275.975 208.827C262.091 181.252 238.47 150.955 209.471 123.528C180.471 96.1015 149.461 74.7447 122.228 63.4696C94.1351 51.8086 73.0691 52.2006 62.9159 64.5825L35.4101 98.0884C26.3028 109.14 27.1996 128.361 37.7686 152.681C39.0043 155.524 40.3716 158.432 41.8703 161.403C55.7547 188.979 79.3748 219.275 108.382 246.699C137.388 274.122 168.384 295.486 195.611 306.765C223.71 318.422 244.78 318.019 254.937 305.645ZM67.0244 68.47C75.4281 58.2252 94.8333 58.4051 120.264 68.9507C146.914 80.0169 177.307 100.968 205.835 127.945C234.363 154.922 257.567 184.639 271.147 211.634C272.585 214.466 273.877 217.241 275.052 219.945C284.549 241.797 285.802 259.133 278.32 268.258C269.913 278.495 250.511 278.323 225.077 267.77C198.423 256.715 168.023 235.767 139.495 208.79C110.967 181.813 87.7774 152.089 74.1829 125.101C61.2226 99.3541 58.6135 78.7182 67.0244 68.47ZM197.575 301.283C170.924 290.217 140.531 269.266 112.003 242.289C83.4756 215.312 60.2645 185.599 46.6842 158.604C33.7594 132.839 31.1149 112.221 39.529 101.98L56.8243 80.9032C55.9486 91.2739 58.783 104.257 65.2673 119.178C66.502 122.019 67.861 124.928 69.3586 127.897C83.2392 155.484 106.866 185.777 135.866 213.203C164.866 240.63 195.862 261.994 223.092 273.262C241.471 280.883 256.85 283.347 268.102 280.691L250.831 301.783C242.417 312.005 222.991 311.836 197.582 301.28L197.575 301.283Z" fill="#003F88" fill-opacity="0.1"/>
<path d="M278.202 268.29C285.674 259.165 284.411 241.817 274.906 219.944C273.729 217.237 272.436 214.46 270.997 211.625C257.406 184.603 234.234 154.84 205.665 127.835C177.096 100.83 146.744 79.8319 120.101 68.7389C94.6772 58.1677 75.2821 57.9733 66.8894 68.2183C58.4967 78.4632 61.1106 99.1177 74.0807 124.891C87.6854 151.906 110.843 181.676 139.412 208.681C167.981 235.686 198.34 256.68 224.987 267.762C250.386 278.355 269.778 278.542 278.202 268.29ZM208.808 226.858C193.552 217.973 175.285 203.727 157.401 186.809C139.518 169.891 124.076 152.197 113.966 137.077C113.693 136.685 113.454 136.295 113.197 135.903L113.055 135.835L113.089 135.753C110.063 131.23 107.403 126.438 105.137 121.429C101.516 113.095 101.196 107.055 104.202 103.387C108.848 97.7095 119.717 99.7964 136.523 109.567C151.779 118.452 170.047 132.699 187.934 149.606C205.822 166.512 221.263 184.225 231.379 199.379C242.528 216.075 245.833 227.416 241.164 233.059C236.494 238.701 225.601 236.636 208.78 226.873L208.808 226.858Z" fill="#FFD500" fill-opacity="0.1"/>
<path d="M217.87 225.028C207.238 209.183 190.868 190.268 174.028 174.383C153.622 155.121 132.854 139.495 116.73 131.245C111.561 123.1 105.212 110.885 108.171 107.278C111.455 103.284 125.857 110.066 133.87 114.698C148.816 123.352 166.761 137.29 184.396 153.928C202.032 170.566 217.19 187.888 227.097 202.685C230.329 207.464 233.171 212.534 235.59 217.837C237.72 222.74 238.765 227.138 237.227 229.087C234.684 232.115 225.578 228.82 217.87 225.028Z" fill="#003F88" fill-opacity="0.1"/>
<path d="M197.477 301.5C170.799 290.415 140.381 269.428 111.827 242.409C83.2729 215.39 60.0453 185.63 46.4411 158.602C33.5002 132.801 30.8476 112.158 39.2638 101.908L56.5633 80.8127C55.6903 91.1954 58.5305 104.195 65.0235 119.136C66.2598 121.981 67.6206 124.894 69.1201 127.867C83.025 155.487 106.669 185.828 135.703 213.294C164.736 240.76 195.751 262.164 223.001 273.454C241.388 281.094 256.783 283.564 268.042 280.908L250.759 302.023C242.344 312.254 222.905 312.078 197.477 301.5Z" fill="#003F88" fill-opacity="0.1"/>
</svg>
