<svg width="552" height="552" viewBox="0 0 552 552" fill="none" xmlns="http://www.w3.org/2000/svg">
<mask id="mask0_21_52" style="mask-type:alpha" maskUnits="userSpaceOnUse" x="0" y="0" width="552" height="552">
<circle cx="276" cy="276" r="276" fill="#C4C4C4"/>
<circle cx="276" cy="276" r="274.5" stroke="#00509D" stroke-opacity="0.43" stroke-width="3"/>
</mask>
<g mask="url(#mask0_21_52)">
<path d="M-75.6294 233.968C-75.6294 233.968 37.6105 211.452 66.8279 132.65C94.7703 57.1093 209.873 36.8043 209.873 36.8043" stroke="#00509D" stroke-opacity="0.43" stroke-width="3" stroke-miterlimit="10"/>
<path d="M-75.6294 271.842C-75.6294 271.842 63.2983 245.856 99.0842 150.746C133.203 59.95 274.288 36.8043 274.288 36.8043" stroke="#00509D" stroke-opacity="0.43" stroke-width="3" stroke-miterlimit="10"/>
<path d="M-75.6294 309.824C-75.6294 309.824 88.8876 280.26 131.242 169.053C171.636 62.6859 338.703 36.8043 338.703 36.8043" stroke="#00509D" stroke-opacity="0.43" stroke-width="3" stroke-miterlimit="10"/>
<path d="M-75.6294 347.699C-75.6294 347.699 114.575 314.664 163.499 187.149C210.07 65.5266 403.117 36.8043 403.117 36.8043" stroke="#00509D" stroke-opacity="0.43" stroke-width="3" stroke-miterlimit="10"/>
<path d="M-75.6294 385.575C-75.6294 385.575 140.262 349.067 195.755 205.35C248.502 68.3673 467.434 36.8043 467.434 36.8043" stroke="#00509D" stroke-opacity="0.43" stroke-width="3" stroke-miterlimit="10"/>
<path d="M-75.6294 423.555C-75.6294 423.555 165.852 383.576 227.913 223.551C287.033 71.1024 531.848 36.8043 531.848 36.8043" stroke="#00509D" stroke-opacity="0.43" stroke-width="3" stroke-miterlimit="10"/>
<path d="M-75.6294 461.431C-75.6294 461.431 191.539 417.874 260.17 241.753C325.467 73.9431 596.263 36.8043 596.263 36.8043" stroke="#00509D" stroke-opacity="0.43" stroke-width="3" stroke-miterlimit="10"/>
<path d="M-75.6294 499.306C-75.6294 499.306 217.227 452.277 292.328 259.849C363.9 76.7839 660.678 36.8043 660.678 36.8043" stroke="#00509D" stroke-opacity="0.43" stroke-width="3" stroke-miterlimit="10"/>
<path d="M-75.6294 537.288C-75.6294 537.288 242.816 486.787 324.584 278.155C402.333 79.519 724.995 36.8043 724.995 36.8043" stroke="#00509D" stroke-opacity="0.43" stroke-width="3" stroke-miterlimit="10"/>
<path d="M-75.6294 575.16C-75.6294 575.16 268.504 521.191 356.743 296.357C440.766 82.3597 789.409 36.8043 789.409 36.8043" stroke="#00509D" stroke-opacity="0.43" stroke-width="3" stroke-miterlimit="10"/>
<path d="M-75.6294 613.141C-75.6294 613.141 294.191 555.593 388.999 314.558C479.199 85.2004 853.823 36.8043 853.823 36.8043" stroke="#00509D" stroke-opacity="0.43" stroke-width="3" stroke-miterlimit="10"/>
<path d="M-75.6294 651.02C-75.6294 651.02 319.78 589.998 421.157 332.76C517.632 87.9363 918.236 36.8043 918.236 36.8043" stroke="#00509D" stroke-opacity="0.43" stroke-width="3" stroke-miterlimit="10"/>
<path d="M-75.6294 688.891C-75.6294 688.891 345.467 624.402 453.414 350.855C556.065 90.777 982.651 36.8043 982.651 36.8043" stroke="#00509D" stroke-opacity="0.43" stroke-width="3" stroke-miterlimit="10"/>
<path d="M-75.6294 726.872C-75.6294 726.872 371.155 658.805 485.67 369.162C594.498 93.6177 1046.97 36.8043 1046.97 36.8043" stroke="#00509D" stroke-opacity="0.43" stroke-width="3" stroke-miterlimit="10"/>
<path d="M-75.6294 764.751C-75.6294 764.751 396.744 693.209 517.828 387.258C632.932 96.3528 1111.38 36.8043 1111.38 36.8043" stroke="#00509D" stroke-opacity="0.43" stroke-width="3" stroke-miterlimit="10"/>
<path d="M-75.6294 802.63C-75.6294 802.63 422.432 727.613 550.085 405.459C671.365 99.1936 1175.8 36.8043 1175.8 36.8043" stroke="#00509D" stroke-opacity="0.43" stroke-width="3" stroke-miterlimit="10"/>
<path d="M-75.6294 840.611C-75.6294 840.611 448.119 762.119 582.243 423.661C709.797 102.034 1240.21 36.8043 1240.21 36.8043" stroke="#00509D" stroke-opacity="0.43" stroke-width="3" stroke-miterlimit="10"/>
<path d="M-75.6294 878.482C-75.6294 878.482 473.709 796.42 614.499 441.862C748.231 104.769 1304.53 36.8043 1304.53 36.8043" stroke="#00509D" stroke-opacity="0.43" stroke-width="3" stroke-miterlimit="10"/>
</g>
</svg>
