<svg width="138" height="123" viewBox="0 0 138 123" fill="none" xmlns="http://www.w3.org/2000/svg">
<path d="M86.4459 28.1089C84.4443 26.1561 80.3779 27.4493 74.3615 31.9404C68.8938 36.0188 62.4978 42.2729 56.3471 49.5471C50.1964 56.8214 45.0237 64.2611 41.7676 70.4953C38.1868 77.363 37.3829 81.8296 39.386 83.7782C40.6815 85.0422 42.8371 84.9447 45.8362 83.5007C47.638 82.597 49.3643 81.5293 50.9962 80.3093L51.0253 80.3236L51.0504 80.2655C51.1916 80.1622 51.3326 80.066 51.4741 79.9555C56.9405 75.8741 63.3365 69.6201 69.4735 62.3524C75.6105 55.0847 80.8008 47.6401 84.057 41.4059C87.6438 34.5211 88.4502 30.0603 86.4459 28.1089ZM67.9382 60.822C63.0469 66.6026 58.0051 71.7239 53.4391 75.5803C56.599 69.951 61.2471 63.4072 66.7223 56.9355C71.1352 51.7102 75.9286 46.8703 81.0569 42.4614C77.8479 48.0755 73.2708 54.5214 67.9382 60.822ZM83.4933 37.6932C77.7742 41.9739 70.9255 48.5944 65.1553 55.4239C58.1586 63.6994 52.4571 72.1432 49.4163 78.7191C46.4784 80.7982 42.0808 83.3397 40.811 82.1058C39.4053 80.7357 41.9118 74.8589 43.6129 71.5936C46.7908 65.5031 51.8731 58.2095 57.9168 51.0574C63.9605 43.9054 70.2333 37.7742 75.5738 33.7854C77.2988 32.4837 79.1253 31.3442 81.0327 30.3793C82.7954 29.5306 84.3713 29.1254 85.0577 29.7671C86.1122 30.8325 84.8815 34.5537 83.4823 37.6984L83.4933 37.6932Z" fill="#003F88" fill-opacity="0.5"/>
<path d="M112.372 22.8587L100.567 11.3581C96.2011 7.10588 88.1672 7.9275 77.9249 13.6567C68.001 19.2113 57.0505 28.7551 47.0941 40.5278C37.1376 52.3006 29.3369 64.9346 25.1572 76.0723C20.8347 87.5612 20.8553 96.2282 25.2184 100.475L37.0251 111.978C40.9192 115.787 47.7866 115.527 56.5295 111.317C57.5517 110.825 58.5975 110.279 59.667 109.68C69.5908 104.125 80.5413 94.5811 90.4965 82.8055C100.452 71.0298 108.255 58.4016 112.436 47.2668C116.757 35.775 116.733 27.1064 112.372 22.8587ZM26.6297 98.8067C23.0196 95.2921 23.1938 87.3114 27.1029 76.9111C31.2048 66.0121 38.8573 53.6295 48.6505 42.0483C58.4436 30.4672 69.1847 21.0913 78.8996 15.6584C79.9188 15.083 80.9169 14.5672 81.889 14.0992C89.7446 10.3169 95.9413 9.89974 99.1567 13.029C102.764 16.545 102.593 24.5243 98.6808 34.9259C94.5828 45.8265 86.9315 58.2121 77.1384 69.7932C67.3452 81.3744 56.6017 90.7444 46.8892 96.1831C37.6233 101.368 30.2409 102.324 26.6297 98.8067ZM110.49 46.428C106.388 57.3271 98.7358 69.7097 88.9426 81.2908C79.1495 92.872 68.4096 102.251 58.6947 107.684C49.4226 112.854 42.0464 113.825 38.4379 110.306L31.0109 103.073C34.7085 103.492 39.36 102.399 44.724 99.8167C45.7454 99.325 46.7915 98.7824 47.86 98.1833C57.7878 92.6302 68.7371 83.0835 78.6936 71.3108C88.65 59.538 96.4531 46.9099 100.63 35.7735C103.455 28.2568 104.422 21.9454 103.538 17.3021L110.97 24.5255C114.572 28.0442 114.402 36.0337 110.489 46.4251L110.49 46.428Z" fill="#003F88" fill-opacity="0.5"/>
<path d="M99.1677 13.0775C95.9521 9.95233 89.7512 10.3737 81.888 14.1596C80.915 14.6281 79.9159 15.1443 78.8957 15.7202C69.171 21.1572 58.4136 30.5197 48.6101 42.1176C38.8067 53.7155 31.138 66.0809 27.0265 76.9769C23.1083 87.3743 22.929 95.3508 26.5392 98.8609C30.1494 102.371 37.5384 101.413 46.8137 96.224C56.5359 90.7812 67.2958 81.4246 77.0993 69.8267C86.9027 58.2288 94.5702 45.8605 98.6777 34.9628C102.604 24.5758 102.78 16.6007 99.1677 13.0775ZM83.9822 41.3857C80.7235 47.6104 75.5335 55.0436 69.3922 62.3036C63.2508 69.5635 56.8458 75.8147 51.3906 79.8873C51.2491 79.9978 51.1081 80.0939 50.9669 80.1971L50.9418 80.2551L50.9128 80.2408C49.2809 81.4598 47.5548 82.5269 45.7534 83.4303C42.7578 84.8726 40.5993 84.9701 39.3067 83.7126C37.3061 81.7694 38.1128 77.3108 41.6964 70.4534C44.9552 64.2287 50.1451 56.7955 56.2825 49.5339C62.4199 42.2724 68.8316 36.0215 74.299 31.9465C80.3234 27.4553 84.3911 26.1598 86.3792 28.1125C88.3673 30.0651 87.5683 34.5342 83.9871 41.3974L83.9822 41.3857Z" fill="#FFD500" fill-opacity="0.5"/>
<path d="M83.3801 37.6481C77.6626 41.9314 70.8167 48.5577 65.05 55.3943C58.0574 63.6785 52.3606 72.1323 49.3238 78.7174C46.3867 80.7976 41.9896 83.3398 40.7184 82.1024C39.3112 80.7287 41.814 74.8436 43.5132 71.5739C46.6874 65.4754 51.7657 58.1731 57.8058 51.0136C63.8459 43.8541 70.116 37.7176 75.4551 33.7263C77.1797 32.4239 79.0058 31.2839 80.9131 30.319C82.6757 29.4703 84.2519 29.0658 84.939 29.7092C86.0056 30.7722 84.7773 34.499 83.3801 37.6481Z" fill="#003F88" fill-opacity="0.5"/>
<path d="M110.567 46.4697C106.458 57.3798 98.7929 69.7727 88.9846 81.3643C79.1763 92.956 68.4195 102.341 58.6926 107.784C49.4079 112.961 42.0226 113.935 38.4109 110.415L30.9772 103.18C34.6792 103.598 39.3365 102.503 44.7077 99.917C45.7304 99.4246 46.7779 98.8814 47.8479 98.2815C57.788 92.7186 68.7544 83.1652 78.7251 71.3788C88.6957 59.5924 96.5132 46.9568 100.699 35.8121C103.531 28.2928 104.499 21.9741 103.615 17.3284L111.056 24.5566C114.661 28.0761 114.488 36.0705 110.567 46.4697Z" fill="#003F88" fill-opacity="0.5"/>
</svg>
