<svg width="171" height="57" viewBox="0 0 171 57" fill="none" xmlns="http://www.w3.org/2000/svg">
<path d="M3.24 45V13.365H9.36V45H3.24ZM23.085 45V13.365H29.205V45H23.085ZM7.11 31.365V25.965H24.795V31.365H7.11ZM44.1316 45.45C42.1516 45.45 40.3666 44.955 38.7766 43.965C37.1866 42.975 35.9416 41.625 35.0416 39.915C34.1416 38.205 33.6916 36.285 33.6916 34.155C33.6916 31.995 34.1416 30.06 35.0416 28.35C35.9416 26.64 37.1866 25.29 38.7766 24.3C40.3666 23.31 42.1516 22.815 44.1316 22.815C45.6916 22.815 47.0866 23.13 48.3166 23.76C49.5466 24.39 50.5216 25.275 51.2416 26.415C51.9916 27.525 52.3966 28.785 52.4566 30.195V38.025C52.3966 39.465 51.9916 40.74 51.2416 41.85C50.5216 42.96 49.5466 43.845 48.3166 44.505C47.0866 45.135 45.6916 45.45 44.1316 45.45ZM45.2116 40.005C46.8616 40.005 48.1966 39.465 49.2166 38.385C50.2366 37.275 50.7466 35.85 50.7466 34.11C50.7466 32.97 50.5066 31.965 50.0266 31.095C49.5766 30.195 48.9316 29.505 48.0916 29.025C47.2816 28.515 46.3216 28.26 45.2116 28.26C44.1316 28.26 43.1716 28.515 42.3316 29.025C41.5216 29.505 40.8766 30.195 40.3966 31.095C39.9466 31.965 39.7216 32.97 39.7216 34.11C39.7216 35.28 39.9466 36.315 40.3966 37.215C40.8766 38.085 41.5216 38.775 42.3316 39.285C43.1716 39.765 44.1316 40.005 45.2116 40.005ZM50.4316 45V39.15L51.3766 33.84L50.4316 28.62V23.265H56.2816V45H50.4316ZM61.4967 45V23.265H67.3917V45H61.4967ZM75.6717 45V32.175C75.6717 30.915 75.2667 29.94 74.4567 29.25C73.6767 28.53 72.7017 28.17 71.5317 28.17C70.7517 28.17 70.0467 28.335 69.4167 28.665C68.7867 28.965 68.2917 29.415 67.9317 30.015C67.5717 30.615 67.3917 31.335 67.3917 32.175L65.0967 31.05C65.0967 29.37 65.4567 27.915 66.1767 26.685C66.9267 25.455 67.9317 24.51 69.1917 23.85C70.4517 23.16 71.8767 22.815 73.4667 22.815C74.9667 22.815 76.3317 23.16 77.5617 23.85C78.7917 24.51 79.7667 25.455 80.4867 26.685C81.2067 27.885 81.5667 29.34 81.5667 31.05V45H75.6717ZM89.8467 45V32.175C89.8467 30.915 89.4417 29.94 88.6317 29.25C87.8517 28.53 86.8767 28.17 85.7067 28.17C84.9567 28.17 84.2517 28.335 83.5917 28.665C82.9617 28.965 82.4667 29.415 82.1067 30.015C81.7467 30.615 81.5667 31.335 81.5667 32.175L78.1917 31.365C78.3117 29.625 78.7767 28.125 79.5867 26.865C80.3967 25.575 81.4617 24.585 82.7817 23.895C84.1017 23.175 85.5717 22.815 87.1917 22.815C88.8117 22.815 90.2667 23.16 91.5567 23.85C92.8467 24.51 93.8667 25.47 94.6167 26.73C95.3667 27.99 95.7417 29.49 95.7417 31.23V45H89.8467ZM100.52 45V23.265H106.46V45H100.52ZM103.49 19.755C102.53 19.755 101.735 19.44 101.105 18.81C100.475 18.15 100.16 17.34 100.16 16.38C100.16 15.45 100.475 14.655 101.105 13.995C101.735 13.335 102.53 13.005 103.49 13.005C104.48 13.005 105.275 13.335 105.875 13.995C106.505 14.655 106.82 15.45 106.82 16.38C106.82 17.34 106.505 18.15 105.875 18.81C105.275 19.44 104.48 19.755 103.49 19.755ZM111.682 45V23.265H117.622V45H111.682ZM114.652 19.755C113.692 19.755 112.897 19.44 112.267 18.81C111.637 18.15 111.322 17.34 111.322 16.38C111.322 15.45 111.637 14.655 112.267 13.995C112.897 13.335 113.692 13.005 114.652 13.005C115.642 13.005 116.437 13.335 117.037 13.995C117.667 14.655 117.982 15.45 117.982 16.38C117.982 17.34 117.667 18.15 117.037 18.81C116.437 19.44 115.642 19.755 114.652 19.755ZM132.024 45.45C130.014 45.45 128.214 44.955 126.624 43.965C125.034 42.975 123.774 41.625 122.844 39.915C121.944 38.205 121.494 36.285 121.494 34.155C121.494 31.995 121.944 30.06 122.844 28.35C123.774 26.64 125.019 25.29 126.579 24.3C128.169 23.31 129.984 22.815 132.024 22.815C133.584 22.815 134.979 23.13 136.209 23.76C137.469 24.39 138.474 25.275 139.224 26.415C140.004 27.525 140.424 28.785 140.484 30.195V37.935C140.424 39.345 140.019 40.62 139.269 41.76C138.519 42.9 137.514 43.8 136.254 44.46C134.994 45.12 133.584 45.45 132.024 45.45ZM133.014 40.005C134.124 40.005 135.084 39.765 135.894 39.285C136.734 38.775 137.379 38.085 137.829 37.215C138.309 36.315 138.549 35.28 138.549 34.11C138.549 32.97 138.309 31.965 137.829 31.095C137.379 30.195 136.734 29.505 135.894 29.025C135.084 28.515 134.139 28.26 133.059 28.26C131.949 28.26 130.974 28.515 130.134 29.025C129.324 29.535 128.679 30.225 128.199 31.095C127.749 31.965 127.524 32.97 127.524 34.11C127.524 35.28 127.749 36.315 128.199 37.215C128.679 38.085 129.339 38.775 130.179 39.285C131.019 39.765 131.964 40.005 133.014 40.005ZM144.084 45H138.234V39.15L139.179 33.84L138.189 28.62V12.465H144.084V45Z" fill="#FDC500"/>
<circle cx="166" cy="40" r="5" fill="#FDC500"/>
</svg>
