<svg width="120" height="120" viewBox="0 0 120 120" fill="none" xmlns="http://www.w3.org/2000/svg">
<mask id="mask0_21_2" style="mask-type:alpha" maskUnits="userSpaceOnUse" x="0" y="0" width="120" height="120">
<circle cx="60" cy="60" r="58.5" fill="#C4C4C4" stroke="#003F88" stroke-width="3"/>
</mask>
<g mask="url(#mask0_21_2)">
<path d="M-23.6875 61.397C-23.6875 61.397 0.929874 56.5024 7.28147 39.3714C13.3559 22.9495 38.3783 18.5354 38.3783 18.5354" stroke="#003F88" stroke-width="3" stroke-miterlimit="10"/>
<path d="M-23.6875 69.6306C-23.6875 69.6306 6.51417 63.9814 14.2937 43.3054C21.7109 23.5671 52.3815 18.5354 52.3815 18.5354" stroke="#003F88" stroke-width="3" stroke-miterlimit="10"/>
<path d="M-23.6875 77.8874C-23.6875 77.8874 12.0771 71.4605 21.2846 47.2851C30.0659 24.1618 66.3847 18.5354 66.3847 18.5354" stroke="#003F88" stroke-width="3" stroke-miterlimit="10"/>
<path d="M-23.6875 86.1213C-23.6875 86.1213 17.6613 78.9396 28.2969 51.2191C38.421 24.7794 80.3879 18.5354 80.3879 18.5354" stroke="#003F88" stroke-width="3" stroke-miterlimit="10"/>
<path d="M-23.6875 94.3551C-23.6875 94.3551 23.2455 86.4186 35.3091 55.1758C46.7759 25.3969 94.3698 18.5354 94.3698 18.5354" stroke="#003F88" stroke-width="3" stroke-miterlimit="10"/>
<path d="M-23.6875 102.612C-23.6875 102.612 28.8084 93.9205 42.3001 59.1325C55.1522 25.9915 108.373 18.5354 108.373 18.5354" stroke="#003F88" stroke-width="3" stroke-miterlimit="10"/>
<path d="M-23.6875 110.846C-23.6875 110.846 34.3926 101.377 49.3123 63.0895C63.5073 26.6091 122.376 18.5354 122.376 18.5354" stroke="#003F88" stroke-width="3" stroke-miterlimit="10"/>
<path d="M-23.6875 119.079C-23.6875 119.079 39.9769 108.856 56.3032 67.0234C71.8623 27.2266 136.379 18.5354 136.379 18.5354" stroke="#003F88" stroke-width="3" stroke-miterlimit="10"/>
<path d="M-23.6875 127.336C-23.6875 127.336 45.5397 116.358 63.3155 71.003C80.2174 27.8212 150.361 18.5354 150.361 18.5354" stroke="#003F88" stroke-width="3" stroke-miterlimit="10"/>
<path d="M-23.6875 135.569C-23.6875 135.569 51.124 123.837 70.3065 74.9599C88.5723 28.4387 164.364 18.5354 164.364 18.5354" stroke="#003F88" stroke-width="3" stroke-miterlimit="10"/>
<path d="M-23.6875 143.826C-23.6875 143.826 56.7082 131.316 77.3187 78.9166C96.9274 29.0563 178.367 18.5354 178.367 18.5354" stroke="#003F88" stroke-width="3" stroke-miterlimit="10"/>
<path d="M-23.6875 152.061C-23.6875 152.061 62.2711 138.795 84.3096 82.8735C105.282 29.651 192.37 18.5354 192.37 18.5354" stroke="#003F88" stroke-width="3" stroke-miterlimit="10"/>
<path d="M-23.6875 160.293C-23.6875 160.293 67.8553 146.274 91.3219 86.8073C113.637 30.2686 206.373 18.5354 206.373 18.5354" stroke="#003F88" stroke-width="3" stroke-miterlimit="10"/>
<path d="M-23.6875 168.55C-23.6875 168.55 73.4396 153.753 98.3341 90.787C121.992 30.8861 220.356 18.5354 220.356 18.5354" stroke="#003F88" stroke-width="3" stroke-miterlimit="10"/>
<path d="M-23.6875 176.785C-23.6875 176.785 79.0024 161.232 105.325 94.721C130.348 31.4807 234.359 18.5354 234.359 18.5354" stroke="#003F88" stroke-width="3" stroke-miterlimit="10"/>
<path d="M-23.6875 185.019C-23.6875 185.019 84.5868 168.711 112.337 98.6777C138.702 32.0983 248.362 18.5354 248.362 18.5354" stroke="#003F88" stroke-width="3" stroke-miterlimit="10"/>
<path d="M-23.6875 193.276C-23.6875 193.276 90.1709 176.212 119.328 102.635C147.057 32.7158 262.365 18.5354 262.365 18.5354" stroke="#003F88" stroke-width="3" stroke-miterlimit="10"/>
<path d="M-23.6875 201.509C-23.6875 201.509 95.7339 183.669 126.34 106.591C155.413 33.3104 276.348 18.5354 276.348 18.5354" stroke="#003F88" stroke-width="3" stroke-miterlimit="10"/>
</g>
</svg>
