<svg width="287" height="298" viewBox="0 0 287 298" fill="none" xmlns="http://www.w3.org/2000/svg">
<mask id="mask0_21_83" style="mask-type:alpha" maskUnits="userSpaceOnUse" x="0" y="0" width="287" height="298">
<path d="M65.0166 0.097168L149.445 74.5362L241.51 11.3737L201.625 120.542L286.052 194.981L176.973 188.012L137.092 297.18L109.561 183.705L0.48291 176.736L92.5471 113.573L65.0166 0.097168Z" fill="#FF866C"/>
<path d="M148.454 75.6616L149.33 76.4341L150.293 75.7729L238.491 15.2632L200.216 120.028L199.865 120.99L200.632 121.667L281.768 193.204L177.069 186.515L175.949 186.444L175.564 187.498L137.381 292.014L111.019 183.351L110.758 182.278L109.657 182.208L4.91162 175.515L93.396 114.81L94.2485 114.224L94.0044 113.219L67.5962 4.37061L148.454 75.6616Z" stroke="#FDC500" stroke-opacity="0.56" stroke-width="3"/>
</mask>
<g mask="url(#mask0_21_83)">
<path d="M275.056 276.765C275.056 276.765 270.345 280.557 268.993 286.737C267.641 292.963 262.625 296.989 262.625 296.989" stroke="#FDC500" stroke-opacity="0.56" stroke-width="3" stroke-miterlimit="10"/>
<path d="M275.056 259.912C275.056 259.912 258.918 265.249 254.644 278.685C250.544 291.746 233.97 297.036 233.97 297.036" stroke="#FDC500" stroke-opacity="0.56" stroke-width="3" stroke-miterlimit="10"/>
<path d="M275.055 243.059C275.055 243.059 247.491 249.941 240.338 270.586C233.403 290.482 205.315 297.036 205.315 297.036" stroke="#FDC500" stroke-opacity="0.56" stroke-width="3" stroke-miterlimit="10"/>
<path d="M275.056 226.16C275.056 226.16 236.107 234.633 225.989 262.487C216.35 289.218 176.66 297.036 176.66 297.036" stroke="#FDC500" stroke-opacity="0.56" stroke-width="3" stroke-miterlimit="10"/>
<path d="M275.056 209.307C275.056 209.307 224.68 219.325 211.683 254.388C199.253 288.001 148.049 297.036 148.049 297.036" stroke="#FDC500" stroke-opacity="0.56" stroke-width="3" stroke-miterlimit="10"/>
<path d="M275.056 192.407C275.056 192.407 213.253 203.97 197.334 246.29C182.112 286.737 119.394 297.036 119.394 297.036" stroke="#FDC500" stroke-opacity="0.56" stroke-width="3" stroke-miterlimit="10"/>
<path d="M275.056 175.554C275.056 175.554 201.869 188.709 183.028 238.191C165.058 285.473 90.782 297.036 90.782 297.036" stroke="#FDC500" stroke-opacity="0.56" stroke-width="3" stroke-miterlimit="10"/>
<path d="M275.056 158.701C275.056 158.701 190.443 173.4 168.679 230.139C147.918 284.256 62.0835 297.036 62.0835 297.036" stroke="#FDC500" stroke-opacity="0.56" stroke-width="3" stroke-miterlimit="10"/>
<path d="M275.056 141.801C275.056 141.801 179.015 158.045 154.329 221.993C130.821 282.992 33.4285 297.036 33.4285 297.036" stroke="#FDC500" stroke-opacity="0.56" stroke-width="3" stroke-miterlimit="10"/>
<path d="M275.056 124.948C275.056 124.948 167.632 142.737 140.024 213.941C113.724 281.728 4.77344 297.036 4.77344 297.036" stroke="#FDC500" stroke-opacity="0.56" stroke-width="3" stroke-miterlimit="10"/>
<path d="M275.055 108.095C275.055 108.095 156.205 127.476 125.674 205.842C96.6264 280.511 -23.8384 297.036 -23.8384 297.036" stroke="#FDC500" stroke-opacity="0.56" stroke-width="3" stroke-miterlimit="10"/>
<path d="M275.056 91.1954C275.056 91.1954 144.778 112.121 111.369 197.744C79.5296 279.247 -52.4932 297.036 -52.4932 297.036" stroke="#FDC500" stroke-opacity="0.56" stroke-width="3" stroke-miterlimit="10"/>
<path d="M275.056 74.3423C275.056 74.3423 133.394 96.813 97.019 189.645C62.4322 278.029 -81.1484 297.036 -81.1484 297.036" stroke="#FDC500" stroke-opacity="0.56" stroke-width="3" stroke-miterlimit="10"/>
<path d="M275.055 57.4894C275.055 57.4894 121.967 81.5049 82.7131 181.546C45.335 276.765 -109.804 297.036 -109.804 297.036" stroke="#FDC500" stroke-opacity="0.56" stroke-width="3" stroke-miterlimit="10"/>
<path d="M275.055 40.5896C275.055 40.5896 110.54 66.1968 68.3638 173.447C28.238 275.501 -138.415 297.036 -138.415 297.036" stroke="#FDC500" stroke-opacity="0.56" stroke-width="3" stroke-miterlimit="10"/>
<path d="M275.056 23.7366C275.056 23.7366 99.1563 50.8886 54.0584 165.348C11.1412 274.284 -167.07 297.036 -167.07 297.036" stroke="#FDC500" stroke-opacity="0.56" stroke-width="3" stroke-miterlimit="10"/>
<path d="M275.056 6.88362C275.056 6.88362 87.729 35.5805 39.7089 157.296C-5.95606 273.02 -195.725 297.036 -195.725 297.036" stroke="#FDC500" stroke-opacity="0.56" stroke-width="3" stroke-miterlimit="10"/>
<path d="M275.055 -10.0162C275.055 -10.0162 76.3017 20.2723 25.3594 149.151C-23.0533 271.756 -224.38 297.036 -224.38 297.036" stroke="#FDC500" stroke-opacity="0.56" stroke-width="3" stroke-miterlimit="10"/>
<path d="M275.056 -26.8692C275.056 -26.8692 64.9185 4.96423 11.0539 141.099C-40.1501 270.539 -253.035 297.036 -253.035 297.036" stroke="#FDC500" stroke-opacity="0.56" stroke-width="3" stroke-miterlimit="10"/>
<path d="M275.055 -43.7221C275.055 -43.7221 53.491 -10.3439 -3.2958 133C-57.2476 269.275 -281.647 297.036 -281.647 297.036" stroke="#FDC500" stroke-opacity="0.56" stroke-width="3" stroke-miterlimit="10"/>
<path d="M275.056 -60.622C275.056 -60.622 42.0641 -25.6988 -17.6012 124.901C-74.388 268.011 -310.302 297.036 -310.302 297.036" stroke="#FDC500" stroke-opacity="0.56" stroke-width="3" stroke-miterlimit="10"/>
<path d="M275.055 -77.475C275.055 -77.475 30.6804 -40.9602 -31.9508 116.802C-91.4853 266.794 -338.957 297.036 -338.957 297.036" stroke="#FDC500" stroke-opacity="0.56" stroke-width="3" stroke-miterlimit="10"/>
</g>
</svg>
